Coordinates
version=1
nRows=16
nColumns=21
inDegrees=yes

Units are S.I. units (second, meters, Newtons, ...)
If the header above contains a line with 'inDegrees', this indicates whether rotational values are in degrees (yes) or radians (no).

endheader
time	sternoclavicular_r2	sternoclavicular_r3	unrotscap_r3	unrotscap_r2	acromioclavicular_r2	acromioclavicular_r3	acromioclavicular_r1	unrothum_r1	unrothum_r3	unrothum_r2	elv_angle	shoulder_elev	shoulder1_r2	shoulder_rot	elbow_flexion	pro_sup	deviation	flexion	wrist_hand_r1	wrist_hand_r3
      1.00502513	    -39.05527216	     16.54196998	    -16.54196998	     39.05527216	     -7.90789817	     63.90885134	     28.72658884	    -28.72658884	    -63.90885134	      7.90789817	    119.32221951	    161.38506044	   -119.32221951	    -84.09107109	      0.02002743	      0.00000000	      0.00000000	     -0.00000000	     -0.00000000	      0.00000000
      1.02512563	    -39.02441699	     16.52890119	    -16.52890119	     39.02441699	     -7.90165062	     63.85836088	     28.70389373	    -28.70389373	    -63.85836088	      7.90165062	    119.29034558	    161.25756002	   -119.29034558	    -84.08079197	      0.02016347	      0.00000000	      0.00000000	     -0.00000000	     -0.00000000	      0.00000000
      1.04522613	    -38.99241039	     16.51534470	    -16.51534470	     38.99241039	     -7.89516994	     63.80598625	     28.68035169	    -28.68035169	    -63.80598625	      7.89516994	    119.25804585	    161.12530162	   -119.25804585	    -84.06749820	      0.02028156	      0.00000000	      0.00000000	     -0.00000000	     -0.00000000	      0.00000000
      1.06532663	    -38.95917759	     16.50126886	    -16.50126886	     38.95917759	     -7.88844097	     63.75160513	     28.65590775	    -28.65590775	    -63.75160513	      7.88844097	    119.22526662	    160.98797633	   -119.22526662	    -84.05193091	      0.02039234	      0.00000000	      0.00000000	     -0.00000000	     -0.00000000	      0.00000000
      1.08542714	    -38.92463963	     16.48664020	    -16.48664020	     38.92463963	     -7.88144774	     63.69508826	     28.63050381	    -28.63050381	    -63.69508826	      7.88144774	    119.19213335	    160.84525780	   -119.19213335	    -84.03443091	      0.02050925	      0.00000000	      0.00000000	     -0.00000000	     -0.00000000	      0.00000000
      1.10552764	    -38.88885847	     16.47148499	    -16.47148499	     38.88885847	     -7.87420278	     63.63653706	     28.60418545	    -28.60418545	    -63.63653706	      7.87420278	    119.15874825	    160.69740208	   -119.15874825	    -84.01493401	      0.02063192	      0.00000000	      0.00000000	     -0.00000000	     -0.00000000	      0.00000000
      1.12562814	    -38.85187466	     16.45582040	    -16.45582040	     38.85187466	     -7.86671431	     63.57601789	     28.57698250	    -28.57698250	    -63.57601789	      7.86671431	    119.12442039	    160.54457676	   -119.12442039	    -83.99386950	      0.02076244	      0.00000000	      0.00000000	     -0.00000000	     -0.00000000	      0.00000000
      1.14572864	    -38.81357337	     16.43959778	    -16.43959778	     38.81357337	     -7.85895908	     63.51334284	     28.54881050	    -28.54881050	    -63.51334284	      7.85895908	    119.08940940	    160.38630736	   -119.08940940	    -83.97148839	      0.02089923	      0.00000000	      0.00000000	     -0.00000000	     -0.00000000	      0.00000000
      1.16582915	    -38.77400824	     16.42283986	    -16.42283986	     38.77400824	     -7.85094794	     63.44859967	     28.51970888	    -28.51970888	    -63.44859967	      7.85094794	    119.05210308	    160.22281543	   -119.05210308	    -83.94743369	      0.02104677	      0.00000000	      0.00000000	     -0.00000000	     -0.00000000	      0.00000000
      1.18592965	    -38.73300383	     16.40547232	    -16.40547232	     38.73300383	     -7.84264538	     63.38150130	     28.48954863	    -28.48954863	    -63.38150130	      7.84264538	    119.01227011	    160.05337608	   -119.01227011	    -83.93098234	      0.02120616	      0.00000000	      0.00000000	     -0.00000000	     -0.00000000	      0.00000000
      1.20603015	    -38.69069687	     16.38755309	    -16.38755309	     38.69069687	     -7.83407909	     63.31227149	     28.45843031	    -28.45843031	    -63.31227149	      7.83407909	    118.97462138	    159.87855434	   -118.97462138	    -83.91178165	      0.02145900	      0.00000000	      0.00000000	     -0.00000000	     -0.00000000	      0.00000000
      1.22613065	    -38.64699571	     16.36904335	    -16.36904335	     38.64699571	     -7.82523049	     63.24076026	     28.42628650	    -28.42628650	    -63.24076026	      7.82523049	    118.85141534	    159.69797146	   -118.85141534	    -84.27625037	      0.02169024	      0.00000000	      0.00000000	     -0.00000000	     -0.00000000	      0.00000000
      1.24623116	    -38.60166662	     16.34984408	    -16.34984408	     38.60166662	     -7.81605227	     63.16658512	     28.39294529	    -28.39294529	    -63.16658512	      7.81605227	    118.81669575	    159.51066158	   -118.81669575	    -84.23606451	      0.02196212	      0.00000000	      0.00000000	     -0.00000000	     -0.00000000	      0.00000000
      1.26633166	    -38.55463439	     16.32992345	    -16.32992345	     38.55463439	     -7.80652920	     63.08962301	     28.35835135	    -28.35835135	    -63.08962301	      7.80652920	    118.77761911	    159.31631394	   -118.77761911	    -84.19810168	      0.02214124	      0.00000000	      0.00000000	     -0.00000000	     -0.00000000	      0.00000000
      1.28643216	    -38.50610276	     16.30936774	    -16.30936774	     38.50610276	     -7.79670253	     63.01020734	     28.32265455	    -28.32265455	    -63.01020734	      7.79670253	    118.73770994	    159.11577046	   -118.73770994	    -84.16308103	      0.02229643	      0.00000000	      0.00000000	     -0.00000000	     -0.00000000	      0.00000000
      1.30653266	    -38.45651895	     16.28836638	    -16.28836638	     38.45651895	     -7.78666282	     62.92906992	     28.28618384	    -28.28618384	    -62.92906992	      7.78666282	    118.65441018	    158.91087916	   -118.65441018	    -84.33379525	      0.02249188	      0.00000000	      0.00000000	     -0.00000000	     -0.00000000	      0.00000000
